# xmcd
#
# Track frame offsets:
# 150
# 22394
# 47264
# 70186
# 93279
# 120799
# 145161
# 169837
# 198739
# 221892
# 247063
# 279922
# 309509
# 340035
#
# Disc length: 4713 seconds
#
#
# Revision: 0
# Processed by: cddbd v1.5.2PL0 Copyright (c) Steve Scherf et al.
# Submitted via: FreeRIP 2.951 
#
DISCID=cb12670e
DTITLE=Cascada - The Remix Album
DYEAR=2006
DGENRE=Dance
TTITLE0=Ready For Love (Club Mix)
TTITLE1=Love Again (Club Mix)
TTITLE2=Can't Stop The Rain (Club Mix)
TTITLE3=Miracle (US Club Mix)
TTITLE4=One More Night (Dan Winter Remix)
TTITLE5=Ready For Love (Italo Brothers New Vox Mix)
TTITLE6=A Neverending Dream (Ivan Fillini Remix)
TTITLE7=Love Again (Rob Mayth Remix)
TTITLE8=Wouldn't It Be Good (Club Mix)
TTITLE9=One More Night (Club Mix)
TTITLE10=Can't Stop The Rain (Mainfield Hardspace Remix)
TTITLE11=Ready For Love (Klubbingman Remix)
TTITLE12=Miracle (Alex M Remix)
TTITLE13=Kids In America (Album Mix)
EXTD=
EXTT0=
EXTT1=
EXTT2=
EXTT3=
EXTT4=
EXTT5=
EXTT6=
EXTT7=
EXTT8=
EXTT9=
EXTT10=
EXTT11=
EXTT12=
EXTT13=
PLAYORDER=
